<svg width="1479" height="500" viewBox="0 0 1479 500" fill="none" xmlns="http://www.w3.org/2000/svg">
<path d="M337.199 256.961L337.549 257.099L337.899 257.238L338.229 257.396L338.559 257.575L338.88 257.753L339.2 257.951L339.5 258.178L339.79 258.396L340.06 258.643L340.34 258.891L340.6 259.168L340.84 259.435L341.08 259.732L341.29 260.029L341.5 260.345L341.68 260.652L341.85 260.989L342.01 261.315L342.15 261.652L342.29 261.998L342.39 262.354L342.49 262.701L342.56 263.077L342.63 263.433L342.67 263.809L342.69 264.165L342.7 264.531L342.69 264.908L342.67 265.274L342.63 265.64L342.56 266.006L342.49 266.362L342.39 266.728L342.29 267.075L342.15 267.431L342.01 267.768L341.85 268.094L341.68 268.421L341.5 268.737L341.29 269.054L341.08 269.351L340.84 269.628L340.6 269.915L340.34 270.172L340.06 270.439L339.79 270.687L339.5 270.905L339.2 271.112L338.88 271.33L338.559 271.508L338.229 271.686L337.899 271.835L337.549 271.983L337.199 272.102L336.849 272.221L336.489 272.3L336.129 272.389L335.749 272.438L335.389 272.478L335.009 272.518H334.949L335.329 272.508L336.009 272.478L336.689 272.438L337.369 272.379L338.039 272.29L338.719 272.191L339.39 272.082L340.06 271.944L340.72 271.795L341.39 271.627L342.05 271.439L342.7 271.231L343.341 271.013L343.981 270.776L344.611 270.519L345.241 270.251L345.861 269.964L346.471 269.658L347.072 269.341L347.662 269.005L348.242 268.648L348.822 268.292L349.382 267.916L349.942 267.51L350.482 267.095L351.013 266.679L351.533 266.234L352.043 265.778L352.533 265.323L353.023 264.838L353.493 264.353L353.943 263.849L354.383 263.334L354.813 262.81L355.234 262.265L355.634 261.721L356.014 261.167L356.394 260.593L356.744 260.019L357.084 259.425L357.414 258.831L357.714 258.238L358.004 257.624L358.274 257.001L358.534 256.377L358.774 255.744L359.005 255.1L359.205 254.457L359.395 253.804L359.565 253.151L359.715 252.498L359.855 251.825L359.975 251.162L360.075 250.499L360.145 249.826L360.215 249.153L360.265 248.47L360.285 247.797L360.295 247.124L360.285 246.451L360.265 245.768L360.215 245.096L360.145 244.423L360.075 243.76L359.975 243.087L359.855 242.414L359.715 241.761L359.565 241.097L359.435 240.593H335.119L334.638 240.603H277.124L336.779 256.842L337.199 256.961Z" fill="white"/>
<path d="M374.918 262.849L374.868 261.998L374.808 261.157L374.728 260.306L374.628 259.465L374.518 258.633L374.378 257.792L374.217 256.961L374.057 256.13L373.867 255.308L373.657 254.487L373.437 253.666L373.187 252.854L372.927 252.052L372.657 251.241L372.357 250.449L372.047 249.668L371.717 248.876L371.377 248.104L371.017 247.332L370.647 246.57L370.246 245.828L369.836 245.076L369.406 244.343L368.966 243.611L368.516 242.899L368.036 242.186L367.556 241.493L367.056 240.81L366.886 240.593H359.434L359.564 241.097L359.714 241.761L359.854 242.414L359.974 243.087L360.074 243.76L360.144 244.423L360.214 245.096L360.264 245.768L360.284 246.451L360.294 247.124L360.284 247.797L360.264 248.47L360.214 249.153L360.144 249.826L360.074 250.499L359.974 251.162L359.854 251.825L359.714 252.498L359.564 253.151L359.394 253.804L359.204 254.457L359.004 255.1L358.774 255.744L358.534 256.377L358.274 257.001L358.003 257.624L357.713 258.238L357.413 258.831L357.083 259.425L356.743 260.019L356.393 260.593L356.013 261.167L355.633 261.721L355.233 262.265L354.813 262.81L354.383 263.334L353.942 263.849L353.492 264.353L353.022 264.838L352.532 265.323L352.042 265.778L351.532 266.234L351.012 266.679L350.482 267.095L349.941 267.51L349.381 267.916L348.821 268.292L348.241 268.648L347.661 269.005L347.071 269.341L346.471 269.658L345.86 269.964L345.24 270.251L344.61 270.519L343.98 270.776L343.34 271.013L342.7 271.231L342.05 271.439L341.389 271.627L340.719 271.795L340.059 271.944L339.389 272.082L338.719 272.191L338.039 272.29L337.368 272.379L336.688 272.438L336.008 272.478L335.328 272.508L334.638 272.518H124.986V304.443H334.638L335.498 304.433L336.348 304.413L337.208 304.363L338.059 304.294L338.909 304.215L339.759 304.126L340.609 303.997L341.449 303.869L342.29 303.72L343.13 303.542L343.97 303.354L344.79 303.156L345.62 302.928L346.451 302.691L347.261 302.443L348.071 302.157L348.871 301.87L349.671 301.563L350.462 301.246L351.242 300.91L352.022 300.543L352.792 300.167L353.552 299.781L354.303 299.376L355.043 298.96L355.783 298.515L356.493 298.069L357.213 297.604L357.923 297.119L358.614 296.625L359.294 296.11L359.964 295.585L360.634 295.041L361.284 294.487L361.914 293.933L362.535 293.349L363.145 292.755L363.745 292.152L364.325 291.528L364.905 290.905L365.465 290.261L366.005 289.608L366.536 288.945L367.056 288.262L367.556 287.58L368.036 286.887L368.516 286.174L368.966 285.462L369.406 284.729L369.836 283.997L370.246 283.255L370.647 282.503L371.017 281.741L371.377 280.979L371.717 280.197L372.047 279.415L372.357 278.633L372.657 277.832L372.927 277.03L373.187 276.229L373.437 275.407L373.657 274.596L373.867 273.774L374.057 272.943L374.217 272.122L374.378 271.291L374.518 270.449L374.628 269.608L374.728 268.767L374.808 267.926L374.868 267.075L374.918 266.234L374.948 265.392L374.958 264.541L374.948 263.69L374.918 262.849Z" fill="#0DC09D"/>
<path d="M162.746 248.164L162.396 248.036L162.046 247.897L161.716 247.739L161.376 247.561L161.066 247.373L160.746 247.175L160.446 246.957L160.155 246.73L159.875 246.482L159.605 246.235L159.345 245.968L159.105 245.69L158.865 245.394L158.655 245.097L158.445 244.79L158.265 244.483L158.095 244.147L157.925 243.81L157.795 243.484L157.655 243.137L157.555 242.771L157.455 242.425L157.375 242.059L157.315 241.702L157.275 241.326L157.255 240.97L157.245 240.594L157.255 240.228L157.275 239.852L157.315 239.495L157.375 239.129L157.455 238.763L157.555 238.407L157.655 238.061L157.795 237.704L157.925 237.368L158.095 237.031L158.265 236.715L158.445 236.388L158.655 236.081L158.865 235.784L159.105 235.497L159.345 235.22L159.605 234.953L159.875 234.696L160.155 234.448L160.446 234.231L160.746 234.013L161.066 233.805L161.376 233.617L161.716 233.449L162.046 233.301L162.396 233.152L162.746 233.023L163.096 232.915L163.456 232.826L163.816 232.746L164.196 232.697L164.557 232.657L164.927 232.618H164.997H164.617L163.936 232.647L163.256 232.697L162.576 232.756L161.906 232.835L161.226 232.934L160.546 233.053L159.885 233.182L159.215 233.34L158.555 233.508L157.895 233.696L157.245 233.904L156.605 234.122L155.954 234.349L155.334 234.607L154.704 234.884L154.084 235.171L153.474 235.478L152.864 235.794L152.284 236.121L151.703 236.477L151.123 236.843L150.553 237.219L150.003 237.625L149.453 238.031L148.933 238.456L148.413 238.892L147.902 239.347L147.412 239.812L146.922 240.287L146.452 240.782L146.002 241.277L145.552 241.791L145.132 242.326L144.702 242.86L144.312 243.404L143.921 243.969L143.551 244.533L143.201 245.116L142.861 245.7L142.531 246.304L142.231 246.898L141.941 247.511L141.671 248.135L141.411 248.758L141.171 249.392L140.941 250.035L140.741 250.678L140.551 251.331L140.381 251.974L140.231 252.638L140.09 253.301L139.97 253.973L139.87 254.637L139.8 255.309L139.73 255.973L139.68 256.655L139.66 257.328L139.65 258.001L139.66 258.684L139.68 259.357L139.73 260.03L139.8 260.703L139.87 261.376L139.97 262.049L140.09 262.712L140.231 263.375L140.381 264.028L140.511 264.543H164.827L165.307 264.533H222.821L163.166 248.293L162.746 248.164Z" fill="white"/>
<path d="M125.026 242.285L125.066 243.136L125.136 243.977L125.216 244.818L125.316 245.659L125.426 246.501L125.566 247.332L125.716 248.173L125.886 249.004L126.076 249.826L126.286 250.647L126.506 251.468L126.756 252.28L127.016 253.081L127.286 253.883L127.586 254.685L127.897 255.466L128.227 256.258L128.567 257.03L128.927 257.802L129.297 258.554L129.697 259.306L130.107 260.058L130.537 260.791L130.977 261.513L131.427 262.225L131.898 262.938L132.388 263.641L132.888 264.323L133.058 264.541H140.51L140.38 264.027L140.23 263.373L140.09 262.71L139.97 262.047L139.87 261.374L139.8 260.701L139.729 260.029L139.679 259.356L139.659 258.683L139.649 258L139.659 257.327L139.679 256.654L139.729 255.971L139.8 255.308L139.87 254.635L139.97 253.972L140.09 253.299L140.23 252.636L140.38 251.973L140.55 251.33L140.74 250.677L140.94 250.033L141.17 249.39L141.41 248.757L141.67 248.133L141.94 247.51L142.23 246.896L142.53 246.303L142.86 245.699L143.2 245.115L143.55 244.531L143.921 243.967L144.311 243.403L144.701 242.859L145.131 242.324L145.551 241.79L146.001 241.275L146.451 240.781L146.921 240.286L147.411 239.811L147.902 239.346L148.412 238.89L148.932 238.455L149.452 238.029L150.002 237.624L150.552 237.218L151.122 236.842L151.702 236.476L152.283 236.119L152.863 235.793L153.473 235.476L154.083 235.169L154.703 234.882L155.333 234.605L155.953 234.348L156.604 234.12L157.244 233.903L157.894 233.695L158.554 233.507L159.214 233.339L159.884 233.18L160.545 233.052L161.225 232.933L161.905 232.834L162.575 232.755L163.255 232.695L163.935 232.646L164.616 232.616L165.306 232.606H374.958V200.691H165.306L164.446 200.701L163.595 200.721L162.735 200.771L161.885 200.83L161.025 200.909L160.185 201.008L159.334 201.127L158.494 201.255L157.654 201.414L156.804 201.582L155.974 201.77L155.143 201.978L154.323 202.196L153.493 202.443L152.683 202.69L151.872 202.968L151.072 203.254L150.272 203.571L149.482 203.888L148.702 204.224L147.922 204.59L147.151 204.967L146.391 205.343L145.641 205.758L144.901 206.174L144.161 206.609L143.44 207.064L142.72 207.53L142.02 208.015L141.33 208.509L140.64 209.014L139.98 209.539L139.309 210.083L138.659 210.637L138.029 211.201L137.409 211.785L136.799 212.369L136.199 212.982L135.608 213.606L135.038 214.229L134.478 214.873L133.938 215.526L133.408 216.189L132.888 216.862L132.388 217.554L131.898 218.247L131.427 218.95L130.977 219.672L130.537 220.404L130.107 221.137L129.697 221.869L129.297 222.621L128.927 223.393L128.567 224.155L128.227 224.937L127.897 225.709L127.586 226.5L127.286 227.292L127.016 228.094L126.756 228.905L126.506 229.717L126.286 230.538L126.076 231.359L125.886 232.191L125.716 233.012L125.566 233.843L125.426 234.685L125.316 235.526L125.216 236.367L125.136 237.208L125.066 238.049L125.026 238.89L124.986 239.741V240.593V241.444L125.026 242.285Z" fill="#0DC09D"/>
<path d="M162.745 176.346L162.395 176.208L162.045 176.059L161.705 175.911L161.385 175.733L161.054 175.555L160.744 175.357L160.444 175.129L160.144 174.911L159.864 174.664L159.594 174.417L159.344 174.139L159.104 173.872L158.864 173.575L158.644 173.278L158.444 172.962L158.254 172.645L158.084 172.319L157.914 171.992L157.784 171.655L157.654 171.299L157.544 170.953L157.454 170.606L157.374 170.23L157.314 169.874L157.264 169.498L157.254 169.132L157.244 168.756L157.254 168.39L157.264 168.034L157.314 167.667L157.374 167.301L157.454 166.945L157.544 166.579L157.654 166.223L157.784 165.876L157.914 165.54L158.084 165.213L158.254 164.877L158.444 164.57L158.644 164.253L158.864 163.956L159.104 163.679L159.344 163.392L159.594 163.115L159.864 162.868L160.144 162.62L160.444 162.403L160.744 162.195L161.054 161.977L161.385 161.799L161.705 161.621L162.045 161.462L162.395 161.324L162.745 161.205L163.095 161.086L163.455 160.987L163.825 160.918L164.185 160.859L164.555 160.819L164.935 160.79H165.055H164.615L163.935 160.819L163.255 160.869L162.575 160.928L161.905 161.017L161.225 161.116L160.544 161.225L159.884 161.364L159.214 161.512L158.554 161.68L157.894 161.868L157.244 162.076L156.603 162.294L155.953 162.531L155.333 162.779L154.703 163.056L154.083 163.343L153.473 163.65L152.862 163.966L152.282 164.293L151.692 164.649L151.122 165.015L150.552 165.391L150.002 165.797L149.452 166.203L148.921 166.628L148.411 167.074L147.901 167.519L147.401 167.984L146.921 168.459L146.451 168.954L146.001 169.459L145.551 169.973L145.131 170.498L144.7 171.042L144.31 171.586L143.92 172.14L143.55 172.704L143.2 173.288L142.86 173.872L142.53 174.476L142.23 175.07L141.94 175.683L141.67 176.307L141.41 176.93L141.17 177.563L140.939 178.207L140.739 178.85L140.549 179.503L140.379 180.156L140.219 180.809L140.089 181.472L139.969 182.145L139.869 182.808L139.789 183.481L139.729 184.144L139.679 184.827L139.659 185.51L139.649 186.183L139.659 186.856L139.679 187.539L139.729 188.212L139.789 188.885L139.869 189.548L139.969 190.221L140.089 190.894L140.219 191.547L140.379 192.21L140.549 192.863L140.739 193.506L140.939 194.159L141.17 194.793L141.41 195.426L141.67 196.049L141.94 196.673L142.23 197.286L142.53 197.89L142.73 198.236L142.75 198.227L143.59 197.801L144.43 197.395L145.281 196.999L146.141 196.633L147.001 196.257L147.881 195.921L148.751 195.604L149.642 195.278L150.532 195L151.432 194.723L152.332 194.466L153.233 194.219L154.143 193.991L155.063 193.793L155.983 193.615L156.893 193.437L157.824 193.288L158.754 193.15L159.684 193.031L160.624 192.932L161.555 192.853L162.495 192.784L163.415 192.744L164.375 192.724L165.306 192.705H222.82L163.155 176.465L162.745 176.346Z" fill="white"/>
<path d="M334.637 344.364H335.327L336.008 344.325L336.688 344.285L337.368 344.226L338.048 344.137L338.728 344.038L339.398 343.929L340.069 343.79L340.729 343.642L341.399 343.474L342.049 343.285L342.699 343.078L343.349 342.86L343.99 342.622L344.61 342.365L345.24 342.098L345.86 341.811L346.47 341.504L347.08 341.188L347.67 340.851L348.251 340.495L348.821 340.129L349.391 339.753L349.951 339.357L350.491 338.941L351.021 338.525L351.541 338.08L352.042 337.625L352.542 337.17L353.022 336.685L353.492 336.2L353.952 335.695L354.392 335.181L354.822 334.656L355.242 334.112L355.632 333.568L356.023 333.013L356.393 332.439L356.743 331.865L357.083 331.272L357.413 330.678L357.723 330.074L358.013 329.471L358.273 328.847L358.543 328.214L358.773 327.59L359.003 326.947L359.213 326.304L359.393 325.651L359.573 324.997L359.723 324.344L359.853 323.671L359.974 323.008L360.074 322.345L360.154 321.662L360.224 320.999L360.264 320.317L360.294 319.644V318.971V318.298L360.264 317.615L360.224 316.942L360.154 316.269L360.074 315.606L359.974 314.933L359.853 314.26L359.723 313.607L359.573 312.944L359.393 312.291L359.213 311.648L359.003 310.994L358.773 310.351L358.543 309.728L358.273 309.104L358.013 308.481L357.723 307.867L357.413 307.264L357.213 306.897L357.193 306.907L356.353 307.333L355.512 307.739L354.662 308.134L353.802 308.511L352.932 308.867L352.062 309.213L351.191 309.53L350.301 309.847L349.401 310.143L348.511 310.411L347.62 310.668L346.7 310.915L345.8 311.133L344.88 311.341L343.96 311.529L343.039 311.697L342.119 311.846L341.189 311.984L340.259 312.103L339.328 312.202L338.388 312.281L337.448 312.34L336.508 312.39L335.577 312.419L334.637 312.429H277.123L336.778 328.669L337.198 328.798L337.548 328.926L337.898 329.065L338.228 329.223L338.558 329.401L338.878 329.589L339.198 329.787L339.498 330.005L339.789 330.233L340.059 330.48L340.339 330.727L340.599 330.995L340.839 331.272L341.079 331.568L341.289 331.865L341.499 332.172L341.679 332.479L341.849 332.815L342.009 333.152L342.149 333.478L342.289 333.825L342.389 334.191L342.489 334.537L342.559 334.903L342.629 335.26L342.669 335.636L342.689 335.992L342.699 336.368L342.689 336.734L342.669 337.11L342.629 337.467L342.559 337.833L342.489 338.199L342.389 338.555L342.289 338.902L342.149 339.258L342.009 339.594L341.849 339.931L341.679 340.247L341.499 340.574L341.289 340.881L341.079 341.178L340.839 341.465L340.599 341.742L340.339 342.009L340.059 342.266L339.789 342.514L339.498 342.731L339.198 342.949L338.878 343.157L338.558 343.345L338.228 343.513L337.898 343.662L337.548 343.81L337.198 343.939L336.848 344.047L336.488 344.137L336.128 344.216L335.748 344.265L335.387 344.305L335.007 344.344L334.637 344.354" fill="white"/>
<path d="M374.918 334.684L374.878 333.843L374.818 333.002L374.728 332.151L374.638 331.31L374.518 330.478L374.378 329.637L374.227 328.806L374.057 327.975L373.867 327.143L373.657 326.332L373.437 325.511L373.197 324.689L372.937 323.898L372.657 323.086L372.357 322.294L372.057 321.513L371.727 320.721L371.377 319.949L371.027 319.177L370.647 318.415L370.246 317.673L369.846 316.921L369.416 316.188L368.966 315.456L368.516 314.744L368.046 314.031L367.556 313.338L367.056 312.656L366.536 311.973L366.015 311.32L365.465 310.657L364.905 310.023L364.335 309.39L363.745 308.776L363.155 308.163L362.535 307.579L361.914 306.995L361.284 306.431L360.634 305.877L359.974 305.332L359.934 305.303L358.994 305.867L358.163 306.332L357.303 306.797L357.193 306.856L357.413 307.262L357.723 307.866L358.013 308.479L358.274 309.103L358.544 309.726L358.774 310.35L359.004 310.993L359.214 311.646L359.394 312.289L359.574 312.943L359.724 313.606L359.854 314.259L359.974 314.932L360.074 315.605L360.154 316.268L360.224 316.941L360.264 317.614L360.294 318.296V318.969V319.642L360.264 320.315L360.224 320.998L360.154 321.661L360.074 322.344L359.974 323.007L359.854 323.67L359.724 324.343L359.574 324.996L359.394 325.649L359.214 326.302L359.004 326.946L358.774 327.589L358.544 328.212L358.274 328.846L358.013 329.469L357.723 330.073L357.413 330.676L357.083 331.27L356.743 331.864L356.393 332.438L356.023 333.012L355.633 333.566L355.243 334.11L354.823 334.655L354.393 335.179L353.952 335.694L353.492 336.198L353.022 336.683L352.542 337.168L352.042 337.623L351.542 338.079L351.022 338.524L350.492 338.94L349.951 339.355L349.391 339.751L348.821 340.127L348.251 340.493L347.671 340.85L347.081 341.186L346.471 341.503L345.86 341.81L345.24 342.097L344.61 342.364L343.99 342.621L343.35 342.859L342.7 343.076L342.05 343.284L341.399 343.472L340.729 343.64L340.069 343.789L339.399 343.927L338.729 344.036L338.049 344.135L337.368 344.224L336.688 344.284L336.008 344.323L335.328 344.363H334.638H124.986V376.288H334.638L335.498 376.278L336.348 376.258L337.208 376.208L338.059 376.139L338.919 376.07L339.769 375.971L340.619 375.842L341.459 375.714L342.3 375.565L343.14 375.387L343.97 375.199L344.8 375.001L345.62 374.783L346.451 374.536L347.261 374.289L348.071 374.002L348.881 373.715L349.681 373.408L350.472 373.091L351.252 372.755L352.032 372.389L352.792 372.012L353.562 371.627L354.303 371.221L355.053 370.805L355.783 370.37L356.503 369.905L357.223 369.449L357.923 368.964L358.614 368.46L359.304 367.955L359.974 367.431L360.634 366.886L361.284 366.332L361.914 365.778L362.535 365.194L363.155 364.6L363.745 363.997L364.335 363.373L364.905 362.75L365.465 362.106L366.015 361.453L366.536 360.79L367.056 360.117L367.556 359.425L368.046 358.732L368.516 358.019L368.966 357.307L369.416 356.575L369.846 355.842L370.246 355.1L370.647 354.348L371.027 353.586L371.377 352.824L371.727 352.042L372.057 351.26L372.357 350.479L372.657 349.677L372.937 348.875L373.197 348.064L373.437 347.252L373.657 346.441L373.867 345.61L374.057 344.788L374.227 343.967L374.378 343.126L374.518 342.294L374.638 341.453L374.728 340.612L374.818 339.771L374.878 338.92L374.918 338.079L374.958 337.238V336.386V335.535L374.918 334.684Z" fill="#0DC09D"/>
<path d="M125.026 170.459L125.066 171.31L125.126 172.151L125.216 173.002L125.316 173.844L125.426 174.675L125.566 175.516L125.716 176.347L125.886 177.179L126.076 178L126.286 178.821L126.506 179.633L126.746 180.454L127.016 181.256L127.286 182.057L127.586 182.859L127.887 183.641L128.217 184.432L128.567 185.204L128.927 185.976L129.297 186.728L129.697 187.48L130.107 188.233L130.527 188.965L130.977 189.697L131.427 190.4L131.898 191.112L132.388 191.815L132.888 192.498L133.408 193.181L133.938 193.834L134.478 194.497L135.038 195.13L135.608 195.763L136.199 196.377L136.799 196.981L137.409 197.574L138.029 198.158L138.659 198.722L139.309 199.277L139.98 199.811L140.01 199.841L140.95 199.286L141.78 198.821L142.64 198.346L142.76 198.297L142.53 197.891L142.23 197.287L141.94 196.674L141.67 196.05L141.41 195.427L141.17 194.794L140.94 194.16L140.74 193.507L140.55 192.864L140.38 192.211L140.22 191.548L140.09 190.895L139.97 190.222L139.87 189.549L139.79 188.886L139.729 188.213L139.679 187.54L139.659 186.857L139.649 186.184L139.659 185.511L139.679 184.828L139.729 184.145L139.79 183.482L139.87 182.809L139.97 182.146L140.09 181.473L140.22 180.81L140.38 180.157L140.55 179.504L140.74 178.851L140.94 178.208L141.17 177.565L141.41 176.931L141.67 176.308L141.94 175.684L142.23 175.071L142.53 174.477L142.86 173.873L143.2 173.289L143.55 172.706L143.921 172.141L144.311 171.587L144.701 171.043L145.131 170.499L145.551 169.974L146.001 169.46L146.451 168.955L146.921 168.46L147.401 167.985L147.902 167.52L148.412 167.075L148.922 166.629L149.452 166.204L150.002 165.798L150.552 165.392L151.122 165.016L151.692 164.65L152.283 164.294L152.863 163.967L153.473 163.651L154.083 163.344L154.703 163.057L155.333 162.78L155.953 162.532L156.604 162.295L157.244 162.077L157.894 161.869L158.554 161.681L159.214 161.513L159.884 161.365L160.545 161.226L161.225 161.117L161.905 161.018L162.575 160.929L163.255 160.87L163.935 160.82L164.616 160.791H165.306H374.958V128.866H165.306H164.446L163.595 128.895L162.735 128.945L161.885 129.014L161.025 129.083L160.175 129.182L159.334 129.311L158.484 129.43L157.644 129.588L156.804 129.756L155.974 129.954L155.143 130.152L154.323 130.37L153.493 130.617L152.683 130.865L151.872 131.142L151.072 131.429L150.262 131.745L149.482 132.062L148.702 132.399L147.922 132.765L147.151 133.131L146.391 133.527L145.641 133.933L144.901 134.348L144.161 134.784L143.44 135.239L142.72 135.704L142.02 136.189L141.33 136.684L140.64 137.198L139.98 137.723L139.309 138.267L138.659 138.811L138.029 139.375L137.409 139.959L136.799 140.553L136.199 141.157L135.608 141.77L135.038 142.404L134.478 143.047L133.938 143.7L133.408 144.363L132.888 145.036L132.388 145.729L131.898 146.421L131.427 147.124L130.977 147.846L130.527 148.569L130.107 149.311L129.697 150.053L129.297 150.796L128.927 151.567L128.567 152.329L128.217 153.111L127.887 153.893L127.586 154.675L127.286 155.466L127.016 156.278L126.746 157.08L126.506 157.891L126.286 158.712L126.076 159.534L125.886 160.365L125.716 161.186L125.566 162.018L125.426 162.859L125.316 163.7L125.216 164.541L125.126 165.382L125.066 166.233L125.026 167.075L124.986 167.916V168.767V169.618L125.026 170.459Z" fill="#0DC09D"/>
<path d="M516.784 329.897H453.084V305.262H516.784C526.645 305.262 534.243 303.388 539.576 299.619C544.909 295.86 547.581 291.007 547.581 285.071C547.581 279.134 545.058 274.78 540.033 272.007C534.998 269.244 527.549 266.959 517.687 265.182L507.418 263.405C497.348 261.628 488.191 259.05 479.948 255.692C471.695 252.333 465.15 247.675 460.324 241.739C455.497 235.803 453.074 228.187 453.074 218.882C453.074 205.037 458.308 194.297 468.775 186.681C479.243 179.065 493.127 175.257 510.437 175.257H572.627V200.194H510.437C501.986 200.194 495.342 201.727 490.515 204.793C485.689 207.859 483.265 212.165 483.265 217.701C483.265 223.637 485.629 227.992 490.356 230.765C495.084 233.537 501.479 235.617 509.524 236.994L520.091 238.771C530.757 240.548 540.519 243.028 549.378 246.191C558.237 249.355 565.229 253.905 570.363 259.841C575.498 265.778 578.06 273.696 578.06 283.587C578.06 298.232 572.518 309.607 561.455 317.721C550.381 325.835 535.494 329.887 516.774 329.887L516.784 329.897Z" fill="white"/>
<path d="M892.291 377.653V307.648H887.432C885.202 311.665 881.963 315.525 877.704 319.226C873.445 322.937 868.026 325.995 861.447 328.4C854.858 330.804 846.71 332.012 836.982 332.012C824.414 332.012 812.866 329.003 802.328 322.987C791.79 316.97 783.382 308.301 777.103 296.96C770.824 285.629 767.685 271.942 767.685 255.891V251.378C767.685 235.337 770.874 221.65 777.263 210.309C783.642 198.978 792.1 190.299 802.638 184.283C813.176 178.266 824.624 175.257 836.982 175.257C851.569 175.257 862.767 177.87 870.565 183.075C878.364 188.291 884.193 194.208 888.042 200.829H892.901V175.257H923.605V377.633H892.301L892.291 377.653ZM845.79 304.936C859.567 304.936 870.815 300.621 879.523 292.002C888.232 283.382 892.591 271.042 892.591 255V252.289C892.591 236.445 888.182 224.213 879.373 215.584C870.555 206.964 859.357 202.65 845.79 202.65C832.223 202.65 821.325 206.964 812.506 215.584C803.688 224.213 799.289 236.445 799.289 252.289V255C799.289 271.052 803.698 283.382 812.506 292.002C821.325 300.631 832.413 304.936 845.79 304.936Z" fill="white"/>
<path d="M744.698 249.35C744.698 234.016 741.685 220.629 735.66 209.18C729.636 197.73 721.242 188.782 710.51 182.345C699.759 175.909 687.253 172.681 673.003 172.681C658.754 172.681 645.485 175.95 634.446 182.497C628.916 185.765 623.991 189.669 619.651 194.229C619.106 194.794 618.571 195.379 618.036 195.964C616.45 197.74 614.974 199.596 613.567 201.533C611.704 204.125 609.97 206.879 608.384 209.795C602.062 221.447 598.891 235.146 598.891 250.893V254.575C598.891 270.323 602.052 284.012 608.384 295.674C614.706 307.326 623.496 316.375 634.743 322.811C645.98 329.247 659.14 332.475 674.202 332.475C687.461 332.475 698.5 330.326 707.339 326.039C716.179 321.741 723.204 316.425 728.427 310.09C729.873 308.324 731.241 306.589 732.519 304.874C735.849 300.425 738.604 296.138 740.774 291.992L714.871 278.494C711.66 285.455 707.082 291.588 701.166 296.895C695.23 302.211 686.45 304.864 674.807 304.864C662.351 304.864 651.956 300.92 643.632 293.061C643.117 292.567 642.611 292.083 642.126 291.558C641.63 291.033 641.164 290.519 640.699 289.994C639.589 288.693 638.558 287.331 637.607 285.899C633.554 279.705 631.235 272.33 630.65 263.786C630.591 262.969 630.561 262.141 630.532 261.314H744.708V249.35H744.698ZM651.312 237.083L635.447 253.234H630.224C630.145 248.583 630.224 242.611 630.829 237.083C631.126 234.985 631.523 232.957 632.038 231.01C632.533 229.063 633.138 227.207 633.841 225.431C636.18 219.51 639.658 214.496 644.236 210.4C651.559 203.853 661.043 200.585 672.706 200.585C684.369 200.585 693.793 203.853 701.027 210.4C708.261 216.947 712.373 225.845 713.374 237.083H651.322H651.312Z" fill="white"/>
<path d="M1093.62 249.35C1093.62 234.016 1090.6 220.629 1084.58 209.18C1078.55 197.73 1070.16 188.782 1059.43 182.345C1048.68 175.909 1036.17 172.681 1021.92 172.681C1007.67 172.681 994.404 175.95 983.365 182.497C977.835 185.765 972.91 189.669 968.57 194.229C968.025 194.794 967.49 195.379 966.955 195.964C965.369 197.74 963.893 199.596 962.486 201.533C960.623 204.125 958.889 206.879 957.303 209.795C950.981 221.447 947.81 235.146 947.81 250.893V254.575C947.81 270.323 950.971 284.012 957.303 295.674C963.625 307.326 972.415 316.375 983.662 322.811C994.899 329.247 1008.06 332.475 1023.12 332.475C1036.38 332.475 1047.42 330.326 1056.26 326.039C1065.1 321.741 1072.12 316.425 1077.35 310.09C1078.79 308.324 1080.16 306.589 1081.44 304.874C1084.77 300.425 1087.52 296.138 1089.69 291.992L1063.79 278.494C1060.58 285.455 1056 291.588 1050.08 296.895C1044.15 302.211 1035.37 304.864 1023.73 304.864C1011.27 304.864 1000.87 300.92 992.551 293.061C992.036 292.567 991.53 292.083 991.045 291.558C990.549 291.033 990.083 290.519 989.618 289.994C988.508 288.693 987.477 287.331 986.526 285.899C982.473 279.705 980.154 272.33 979.569 263.786C979.51 262.969 979.48 262.141 979.451 261.314H1093.63V249.35H1093.62ZM1000.23 237.083L984.366 253.234H979.143C979.064 248.583 979.143 242.611 979.748 237.083C980.045 234.985 980.441 232.957 980.957 231.01C981.452 229.063 982.057 227.207 982.76 225.431C985.099 219.51 988.577 214.496 993.155 210.4C1000.48 203.853 1009.96 200.585 1021.62 200.585C1033.29 200.585 1042.71 203.853 1049.95 210.4C1057.18 216.947 1061.29 225.845 1062.29 237.083H1000.24H1000.23Z" fill="white"/>
<path d="M1124.88 330.029V173.285H1155.58V190.732H1160.44C1162.87 184.517 1166.77 179.955 1172.13 177.045C1177.5 174.136 1184.14 172.681 1192.04 172.681H1209.98V200.657H1190.83C1180.69 200.657 1172.39 203.418 1165.91 208.931C1159.42 214.453 1156.18 222.924 1156.18 234.354V330.019H1124.87L1124.88 330.029Z" fill="white"/>
<path d="M1354.01 230.335C1354.01 211.934 1348.37 197.721 1337.05 187.707C1325.75 177.693 1310.23 172.681 1290.48 172.681C1277.53 172.681 1266.58 174.72 1257.63 178.818C1248.69 182.916 1241.49 188.33 1236.05 195.07C1230.6 201.819 1226.64 209.182 1224.17 217.147L1253.77 226.659C1255.62 218.483 1259.43 211.834 1265.19 206.721C1270.96 201.619 1279.27 199.057 1290.17 199.057C1301.07 199.057 1309.5 201.769 1314.84 207.183C1320.2 212.597 1322.86 219.608 1322.86 228.196V254.351H1317.73L1301.28 238.009H1276.6C1259.95 238.009 1246.12 241.946 1235.12 249.821C1224.12 257.686 1218.61 269.297 1218.61 284.634C1218.61 294.859 1221.14 303.538 1226.17 310.699C1231.21 317.861 1238 323.274 1246.52 326.951C1255.07 330.627 1264.78 332.475 1275.66 332.475C1286.54 332.475 1294.58 330.988 1300.95 328.025C1307.33 325.062 1312.17 321.587 1315.45 317.599C1318.75 313.612 1321.2 309.976 1322.85 306.712H1327.79V329.898L1354 329.898V230.345L1354.01 230.335ZM1322.86 265.6C1322.86 278.286 1318.9 288.25 1310.98 295.502C1303.07 302.754 1292.85 306.39 1280.3 306.39C1271.05 306.39 1263.75 304.351 1258.4 300.253C1253.05 296.155 1250.38 290.641 1250.38 283.69C1250.38 276.739 1252.96 271.466 1258.09 267.901C1263.24 264.325 1270.01 262.537 1278.44 262.537H1322.85V265.6H1322.86Z" fill="white"/>
</svg>
